<svg id="rune-alphabet" data-name="Layer 1" xmlns="http://www.w3.org/2000/svg" viewBox="0 0 441.6 255.4">
  <title>rune-alphabet-tiles</title>
  <g>
    <path d="M198.7,149.6a1.7,1.7,0,0,1,0-.8q0-16.3,0-32.6v-0.4a1.3,1.3,0,0,1,1-1.6h0.1a2.1,2.1,0,0,1,1.5,1c1.3,2.5,2.5,5.2,3.8,7.7l3.2,6.6,2.9-5.8,3.6-7.4a1.5,1.5,0,0,1,1.7-1.2c0.9,0.2,1.1,1,1.1,1.9q0,15.8,0,31.5c0,0.9-.1,1.6-1.1,1.8s-1.4-.5-1.7-1.3l-5.9-12.3-0.6-1.1-6.5,13.3a3,3,0,0,1-.5,1.1m0.4-28.3h-0.2V143c1.5-2.7,2.8-5.5,4.3-8.2s1.1-3.1,0-4.7a10,10,0,0,1-.8-1.6Zm13,20.9h0.2V122.8c-1.7,3.1-3.2,6.2-4.7,9.3a1.5,1.5,0,0,0-.1,1.1Z" transform="translate(0 103)" fill="none" stroke="#000" stroke-miterlimit="10" stroke-width="2"/>
    <path d="M90.7,150.2a2.1,2.1,0,0,1-.1-1.1V116.3a2.1,2.1,0,0,1,0-.8,2.4,2.4,0,0,1,.9-1.2,1.7,1.7,0,0,1,1.4.4c1.4,1.5,2.6,3,3.9,4.5l3.1,3.6,6.2-6.8,1-1a1.2,1.2,0,0,1,2,.7,4.9,4.9,0,0,1,.1,1.2q0.1,16.2.1,32.4a2.4,2.4,0,0,1-.6,1.6,1.2,1.2,0,0,1-2-1,19.2,19.2,0,0,1,0-2.4V135.1a1.3,1.3,0,0,0-.7-1.4,8.5,8.5,0,0,1-1.8-1.9l-4.3-5-6.4,7a2,2,0,0,0-.3,1.2v14a2.2,2.2,0,0,1-.1,1.2m13.5-30.7-4.9,5.3,4.9,5.7v-11Zm-8.4,5.2-4.8-5.4v10.8Z" transform="translate(0 103)" fill="none" stroke="#000" stroke-miterlimit="10" stroke-width="2"/>
    <path d="M58.2,150.3a2.2,2.2,0,0,1-.1-1.2V116.8c0-.8,0-1.7.9-2s1.4,0.3,1.9.9l6.6,7.9,6.5-8.5c0.5-.6,1-1.4,1.9-1s0.9,1.2.9,2v33a2.3,2.3,0,0,1-.2,1.3,1.7,1.7,0,0,1-1.2.7,2.1,2.1,0,0,1-1.2-1,2.4,2.4,0,0,1-.1-1.2V119.6H73.9l-3.6,4.6L69,125.9c-1.3,1.6-1.9,1.6-3.2.1l-4.6-5.5-0.6-.7v29.1a2.4,2.4,0,0,1-.1,1.2" transform="translate(0 103)" fill="none" stroke="#000" stroke-miterlimit="10" stroke-width="2"/>
    <path d="M158.5,93.2l-6.9-7.9-0.4-.6-6.9,8.6c-0.5.7-1,1.3-2,.9s-0.9-1.2-.9-2V60.8a11.3,11.3,0,0,1,0-2.3,2,2,0,0,1,.9-1.3,1.8,1.8,0,0,1,1.5.5l6,7.5,1,1.2,6.4-7,1.4-1.5a1.3,1.3,0,0,1,1.8-.4l0.2,0.2a1.3,1.3,0,0,1,.1,1.8h-0.1l-8.9,9.7c-0.8.8-1.5,0.7-2.3-.3L145,63.4l-0.9-1.1V88.6h0.3l4.3-5.3,0.5-.7c1.5-1.9,2-1.9,3.6-.1l7.7,8.9" transform="translate(0 103)" fill="none" stroke="#000" stroke-miterlimit="10" stroke-width="2"/>
    <path d="M147.8,148.3l5.1-6.7,0.4-.6-5.4-7.1a1.7,1.7,0,0,1-.1-2.4h0.1l4.8-6.4a1,1,0,0,0,.1-1.4h-0.1l-4.8-6.1c-0.7-.9-0.8-1.8,0-2.3a1.5,1.5,0,0,1,2.1.6l4.9,6.3,4.6-6.2,0.7-1a1.3,1.3,0,0,1,1.7-.6h0.2a1.3,1.3,0,0,1,.5,1.8l-0.3.3-3.7,5c-0.7.9-1.8,1.8-1.8,2.7s1.1,1.8,1.8,2.7l3.5,4.5a1.7,1.7,0,0,1,.1,2.4h-0.1l-5.5,7.2,5.1,6.6,0.5,0.7c0.6,0.8.8,1.6-.1,2.2a1.3,1.3,0,0,1-2-.5l-5.2-6.7L152,147l-2.3,3m9.9-17.3-4.8-6.2-4.3,5.8a0.8,0.8,0,0,0,0,.7l4.5,5.9Z" transform="translate(0 103)" fill="none" stroke="#000" stroke-miterlimit="10" stroke-width="2"/>
    <path d="M35.1,149.5q-0.1-16.8,0-33.6a1.4,1.4,0,0,1,2.6-1q4.5,4.8,8.8,9.8a2,2,0,0,1,.3,1.8c-1.5,2.2-3.2,4.3-4.6,6l4.8,5.4c0.9,1,1,1.5,0,2.5l-9.3,10m6.4-10.7-6.2-7v13.8ZM37.8,119c0,0.6-.1.9-0.1,1.3v6.3c0,2.1.2,2.7,2.7,3.1H41l2.9-3.8Z" transform="translate(0 103)" fill="none" stroke="#000" stroke-miterlimit="10" stroke-width="2"/>
    <path d="M7.4,93.4a2,2,0,0,1-.2-1.2v-34a1.3,1.3,0,0,1,1.3-1.3H8.6a1.2,1.2,0,0,1,1.3,1.4c0,2.3.1,4.6,0,6.8a2.6,2.6,0,0,0,.9,2.1l5.4,5.4c0-.6.1-0.9,0.1-1.3q0-5.7,0-11.4a2.2,2.2,0,0,1,.1-1.1,2.4,2.4,0,0,1,1.2-1.1,2.5,2.5,0,0,1,1.3,1.1,1.8,1.8,0,0,1,.1.9Q19,75.8,19,92a2.2,2.2,0,0,1-.2,1.3,1.9,1.9,0,0,1-1.3.8,2,2,0,0,1-1.1-1,2.5,2.5,0,0,1-.1-1.2V78a2.9,2.9,0,0,0-1.1-2.7,43.5,43.5,0,0,1-4.1-4l-0.7-1-0.4.3V92.1a2.5,2.5,0,0,1-.1,1.2" transform="translate(0 103)" fill="none" stroke="#000" stroke-miterlimit="10" stroke-width="2"/>
    <path d="M172.7,149.4l0.7-1.1,5.7-9.3a1.3,1.3,0,0,0,0-1.7c-1.7-2.6-3.3-5.3-5.1-7.8a2.4,2.4,0,0,1-.1-2.9l6.3-11q1.5-2.6,3,0l6.1,10a1.8,1.8,0,0,1,0,2.1l-5.9,9.6a1.5,1.5,0,0,0,.1,1.9l6.2,9.7h0.1c0.7,1,.6,1.9-0.2,2.3a1.6,1.6,0,0,1-2.1-.8l-5.3-8.3-0.9-1.4-4.6,7.6a13.9,13.9,0,0,1-1.6,2.4m6.7-32.5-5.2,9.2a1,1,0,0,0,0,.9l4.7,7.3,5.2-8.6a1,1,0,0,0,0-.9Z" transform="translate(0 103)" fill="none" stroke="#000" stroke-miterlimit="10" stroke-width="2"/>
    <path d="M172.2,36.5l3.5-9.4c0.9-2.4,1.8-4.7,2.6-7.1a3.1,3.1,0,0,0,0-1.9L172.9,3.3a2.3,2.3,0,0,1,.1-1.8c0.6-.9,1.8-0.5,2.3.7l2.5,6.7,2.4,6.3,1.6-4.3,3-8c0.6-1.7,1.2-2.2,2.1-1.8s1,1.2.4,2.7c-1.8,4.7-3.6,9.5-5.3,14.2a3,3,0,0,0,0,1.9l6,16.2c0.4,1.2.2,1.9-.7,2.2s-1.5-.4-1.8-1.3l-4.8-12.9-0.5-1.3-5.1,13.6-0.4.9" transform="translate(0 103)" fill="none" stroke="#000" stroke-miterlimit="10" stroke-width="2"/>
    <path d="M33.3,37.1a1.8,1.8,0,0,1-.1-0.9V4.1A2.1,2.1,0,0,1,34,2.5a2.1,2.1,0,0,1,1.8.5l8.8,8.2a2.9,2.9,0,0,1,.8,1.9c0.1,7.8,0,15.7,0,23.5,0,0.9-.2,1.7-1.3,1.8s-1.4-.6-1.4-1.8V14.5a2.7,2.7,0,0,0-1-2.3L35.8,6.8V36.3a2.3,2.3,0,0,1-.2,1.3" transform="translate(0 103)" fill="none" stroke="#000" stroke-miterlimit="10" stroke-width="2"/>
    <path d="M122.4,37.4a2.2,2.2,0,0,1-.1-1.1V3.9a2.9,2.9,0,0,1,0-1.1,2.2,2.2,0,0,1,.8-1.2,1.9,1.9,0,0,1,1.3.2,2.7,2.7,0,0,1,.7.8l7.9,9.3c1.1,1.2,1,1.6-.1,2.8l-6.9,7,6.9,7.1,0.9,0.8c0.7,0.6,1.1,1.4.3,2.2s-1.5.5-2.2-.2l-6.2-6.1-0.7-.7a6,6,0,0,0-.1.8V36a2.3,2.3,0,0,1-.2,1.3M125,18.4l5.5-5.6L125,6.3V18.4Z" transform="translate(0 103)" fill="none" stroke="#000" stroke-miterlimit="10" stroke-width="2"/>
    <path d="M113.9,81.2l6.5,7.3,0.6,0.6V59.6a1.4,1.4,0,0,1,2.5-1l9.2,10.1a1.3,1.3,0,0,1,.3,1.8l-0.2.2a1.3,1.3,0,0,1-1.8,0l-0.2-.2-6.1-6.7-0.8-.9-0.2.7c0,4.6-.1,9.3-0.1,13.9s0.1,9.9,0,14.8a2.5,2.5,0,0,1-.8,1.8c-0.7.5-1.4-.1-1.9-0.7l-9-10.4" transform="translate(0 103)" fill="none" stroke="#000" stroke-miterlimit="10" stroke-width="2"/>
    <path d="M10.4,150V120H10.1l-6,6.5-0.7.8a1.3,1.3,0,0,1-1.8.2H1.5a1.3,1.3,0,0,1-.2-1.8H1.4l1.9-2.1,7-7.6c1.1-1.2,1.7-1.2,2.8,0l8.4,9a1.4,1.4,0,0,1,.2,2.2c-0.7.7-1.5,0.3-2.1-.4l-6.5-6.9v1.7q0,13.8,0,27.6a2.2,2.2,0,0,1,0,1.1" transform="translate(0 103)" fill="none" stroke="#000" stroke-miterlimit="10" stroke-width="2"/>
    <path d="M64.6,36.8V2.7A1.7,1.7,0,0,1,66,1.1a1.3,1.3,0,0,1,1.3,1.3V2.6c0,1.1-.1,2.2,0,3.4A2.7,2.7,0,0,0,68,7.5l7.7,7.9c1.1,1.2,1.1,1.7-.1,2.8l-7.6,7a2.2,2.2,0,0,0-.8,1.9v9.8m0.1-14.7,5.8-5.4-5.8-5.6V22.3h0Z" transform="translate(0 103)" fill="none" stroke="#000" stroke-miterlimit="10" stroke-width="2"/>
    <path d="M178.3,93V69.4a2.9,2.9,0,0,0-.8-1.8L170,60.4l-0.6-.6A1.3,1.3,0,0,1,169,58l0.2-.2a1.3,1.3,0,0,1,1.8-.1l0.2,0.2,5.1,4.9,2,1.8V58.8c0-1.8.3-1.7,1.4-1.7s1.3,0.8,1.3,1.6v5l0.9-.7,5.5-5c0.7-.7,1.5-1,2.2-0.2s0.3,1.5-.4,2.2l-7.3,6.7a2.3,2.3,0,0,0-.9,1.9c0.1,5.3.1,10.5,0.1,15.8V93" transform="translate(0 103)" fill="none" stroke="#000" stroke-miterlimit="10" stroke-width="2"/>
    <path d="M8.5,36.6a2.3,2.3,0,0,1-.1-1.2V3.3A1.3,1.3,0,0,1,9.6,1.9H9.8a1.2,1.2,0,0,1,1.3,1.4V7.4a2.3,2.3,0,0,0,.1,1.2l5.6-5.7c0.6-.7,1.4-1,2.1-0.3a1.3,1.3,0,0,1,.2,1.8l-0.3.3L12,11.6a3.5,3.5,0,0,0-.8,2c-0.1,1.4,0,2.9,0,4.4h0.2l5.2-5.3,1.2-1.2a1.3,1.3,0,1,1,1.9,1.9l-8.2,8.1a1.6,1.6,0,0,0-.4,1v13a2.4,2.4,0,0,1-.1,1.2" transform="translate(0 103)" fill="none" stroke="#000" stroke-miterlimit="10" stroke-width="2"/>
    <path d="M201.1,91.3l10.1-12.2,1.3-1.6H201.3a2.7,2.7,0,0,1-1.7-.7,2.3,2.3,0,0,1,.5-1.9l5.1-6,9.2-10.6,0.3-.4a1.3,1.3,0,0,1,1.8-.5l0.2,0.2a1.4,1.4,0,0,1,0,2h0l-2.5,2.9L203.7,74.7h2.7l8.6-.2a2.1,2.1,0,0,1,1.6.8,2,2,0,0,1-.4,1.7L203,93" transform="translate(0 103)" fill="none" stroke="#000" stroke-miterlimit="10" stroke-width="2"/>
    <path d="M95.2,37.4a1.9,1.9,0,0,1-.1-1V4a3.1,3.1,0,0,1,.1-1.2,2,2,0,0,1,.9-1.1,1.6,1.6,0,0,1,1.4.4l8.6,9.7a1.3,1.3,0,0,1,.1,1.8h-0.1a1.3,1.3,0,0,1-1.8,0l-0.2-.2L97.9,6.4a34.4,34.4,0,0,1,0,3.8,4.8,4.8,0,0,0,1.8,4.5c2.1,1.9,4.1,4,6.1,6s1,1.7.4,2.3-1.6.3-2.3-.4l-4.8-4.8-1.1-1V36.7a1.5,1.5,0,0,1-.1.8" transform="translate(0 103)" fill="none" stroke="#000" stroke-miterlimit="10" stroke-width="2"/>
    <path d="M204.4,37.1V19.8h0V3c0-.8,0-1.6.9-1.9s1.4,0.3,1.9.9l8,9.5c1,1.2,1,1.7-.2,2.8L207.8,21a2.7,2.7,0,0,0-.7,1.7c-0.1,4.4,0,8.9,0,13.3a1.9,1.9,0,0,1,0,.9M207.2,6V17.9l5.6-5.2Z" transform="translate(0 103)" fill="none" stroke="#000" stroke-miterlimit="10" stroke-width="2"/>
    <path d="M124,150.3a1.8,1.8,0,0,1-.1-1V116.2a3,3,0,0,1,.3-1.4c0.5-.9,1.5-0.9,2.4.1l6.7,7.9,2.3,2.7c0.8,1,.9,1.8.1,2.3a1.7,1.7,0,0,1-2.2-.6l-6.6-7.8h-0.3v29.5a2.5,2.5,0,0,1-.1,1.2" transform="translate(0 103)" fill="none" stroke="#000" stroke-miterlimit="10" stroke-width="2"/>
    <path d="M37.5,93.2a2.5,2.5,0,0,1-.1-1.2V70.9a2.7,2.7,0,0,0-.9-2.1l-3.9-4.1c-0.6-.7-1-1.4-0.3-2.2s1.4-.5,2.2.4l2.8,2.9V58.7a2.3,2.3,0,0,1,.6-1.5c0.8-.7,2,0.1,2,1.3v9.1a3.3,3.3,0,0,0,.8,1.9c1.2,1.4,2.5,2.8,3.8,4.1s0.9,1.4.2,2.1-1.5.4-2.2-.3l-2.6-2.8V92.3a1.9,1.9,0,0,1-.1,1" transform="translate(0 103)" fill="none" stroke="#000" stroke-miterlimit="10" stroke-width="2"/>
    <path d="M158.5,37.8l-3.7-5-8.6-11.7a1.9,1.9,0,0,1,0-2.7h0l12-15.8,1.4-1.3a3.3,3.3,0,0,1,1.2,1,2.3,2.3,0,0,1-.3,1.6c-1.4,2-2.9,3.9-4.4,5.9l-7,9.2a1.1,1.1,0,0,0-.2,1.5l0.2,0.2,11,15,0.5,0.7" transform="translate(0 103)" fill="none" stroke="#000" stroke-miterlimit="10" stroke-width="2"/>
    <path d="M63.4,92.5V58.8c0-1.3.5-1.9,1.4-1.8a1.6,1.6,0,0,1,1.3,1.8V69.5H66V80.3c0,3.6.1,8.1,0.1,12.2" transform="translate(0 103)" fill="none" stroke="#000" stroke-miterlimit="10" stroke-width="2"/>
    <path d="M93.1,82l-7-8.1-1.6-1.8a1.6,1.6,0,0,1-.1-2.3h0l8.8-11.2c0.6-.7,1.3-1.1,2.1-0.4a1.3,1.3,0,0,1,0,2.1l-6.9,8.9L87,70.9l7.1,8,1.1,1.3" transform="translate(0 103)" fill="none" stroke="#000" stroke-miterlimit="10" stroke-width="2"/>
    <path d="M93.4,91.8c1.9-2.6,3.8-5.3,5.9-7.8s2-2.3,0-4.5L92.8,72a1.4,1.4,0,0,1,0-2.2,1.6,1.6,0,0,1,2.1.4l6.2,7,2.7,2.9a1.6,1.6,0,0,1,.1,2.3h0L95.8,92.9l-1.2.9" transform="translate(0 103)" fill="none" stroke="#000" stroke-miterlimit="10" stroke-width="2"/>
  </g>
  <g>
    <path d="M421.7,149.6a1.7,1.7,0,0,1,0-.8q0-16.3,0-32.6v-0.4a1.3,1.3,0,0,1,1-1.6h0.1a2.1,2.1,0,0,1,1.5,1c1.3,2.5,2.5,5.2,3.8,7.7l3.2,6.6,2.9-5.8,3.6-7.4a1.5,1.5,0,0,1,1.7-1.2c0.9,0.2,1.1,1,1.1,1.9q0,15.8,0,31.5c0,0.9-.1,1.6-1.1,1.8s-1.4-.5-1.7-1.3l-5.9-12.3-0.6-1.1-6.5,13.3a3,3,0,0,1-.5,1.1m0.4-28.3h-0.2V143c1.5-2.7,2.8-5.5,4.3-8.2s1.1-3.1,0-4.7a10,10,0,0,1-.8-1.6Zm13,20.9h0.2V122.8c-1.7,3.1-3.2,6.2-4.7,9.3a1.5,1.5,0,0,0-.1,1.1Z" transform="translate(0 103)" fill="none" stroke="#000" stroke-miterlimit="10" stroke-width="2"/>
    <path d="M313.7,150.2a2.1,2.1,0,0,1-.1-1.1V116.3a2.1,2.1,0,0,1,0-.8,2.4,2.4,0,0,1,.9-1.2,1.7,1.7,0,0,1,1.4.4c1.4,1.5,2.6,3,3.9,4.5l3.1,3.6,6.2-6.8,1-1a1.2,1.2,0,0,1,2,.7,4.9,4.9,0,0,1,.1,1.2q0.1,16.2.1,32.4a2.4,2.4,0,0,1-.6,1.6,1.2,1.2,0,0,1-2-1,19.2,19.2,0,0,1,0-2.4V135.1a1.3,1.3,0,0,0-.7-1.4,8.5,8.5,0,0,1-1.8-1.9l-4.3-5-6.4,7a2,2,0,0,0-.3,1.2v14a2.2,2.2,0,0,1-.1,1.2m13.5-30.7-4.9,5.3,4.9,5.7v-11Zm-8.4,5.2-4.8-5.4v10.8Z" transform="translate(0 103)" fill="none" stroke="#000" stroke-miterlimit="10" stroke-width="2"/>
    <path d="M281.2,150.3a2.2,2.2,0,0,1-.1-1.2V116.8c0-.8,0-1.7.9-2s1.4,0.3,1.9.9l6.6,7.9,6.5-8.5c0.5-.6,1-1.4,1.9-1s0.9,1.2.9,2v33a2.3,2.3,0,0,1-.2,1.3,1.7,1.7,0,0,1-1.2.7,2.1,2.1,0,0,1-1.2-1,2.4,2.4,0,0,1-.1-1.2V119.6h-0.2l-3.6,4.6-1.3,1.7c-1.3,1.6-1.9,1.6-3.2.1l-4.6-5.5-0.6-.7v29.1a2.4,2.4,0,0,1-.1,1.2" transform="translate(0 103)" fill="none" stroke="#000" stroke-miterlimit="10" stroke-width="2"/>
    <path d="M381.5,93.2l-6.9-7.9-0.4-.6-6.9,8.6c-0.5.7-1,1.3-2,.9s-0.9-1.2-.9-2V60.8a11.3,11.3,0,0,1,0-2.3,2,2,0,0,1,.9-1.3,1.8,1.8,0,0,1,1.5.5l6,7.5,1,1.2,6.4-7,1.4-1.5a1.3,1.3,0,0,1,1.8-.4l0.2,0.2a1.3,1.3,0,0,1,.1,1.8h-0.1l-8.9,9.7c-0.8.8-1.5,0.7-2.3-.3L368,63.4l-0.9-1.1V88.6h0.3l4.3-5.3,0.5-.7c1.5-1.9,2-1.9,3.6-.1l7.7,8.9" transform="translate(0 103)" fill="none" stroke="#000" stroke-miterlimit="10" stroke-width="2"/>
    <path d="M370.8,148.3l5.1-6.7,0.4-.6-5.4-7.1a1.7,1.7,0,0,1-.1-2.4h0.1l4.8-6.4a1,1,0,0,0,.1-1.4h-0.1l-4.8-6.1c-0.7-.9-0.8-1.8,0-2.3a1.5,1.5,0,0,1,2.1.6l4.9,6.3,4.6-6.2,0.7-1a1.3,1.3,0,0,1,1.7-.6h0.2a1.3,1.3,0,0,1,.5,1.8l-0.3.3-3.7,5c-0.7.9-1.8,1.8-1.8,2.7s1.1,1.8,1.8,2.7l3.5,4.5a1.7,1.7,0,0,1,.1,2.4h-0.1l-5.5,7.2,5.1,6.6,0.5,0.7c0.6,0.8.8,1.6-.1,2.2a1.3,1.3,0,0,1-2-.5l-5.2-6.7L375,147l-2.3,3m9.9-17.3-4.8-6.2-4.3,5.8a0.8,0.8,0,0,0,0,.7l4.5,5.9Z" transform="translate(0 103)" fill="none" stroke="#000" stroke-miterlimit="10" stroke-width="2"/>
    <path d="M258.1,149.5q-0.1-16.8,0-33.6a1.4,1.4,0,0,1,2.6-1q4.5,4.8,8.8,9.8a2,2,0,0,1,.3,1.8c-1.5,2.2-3.2,4.3-4.6,6l4.8,5.4c0.9,1,1,1.5,0,2.5l-9.3,10m6.4-10.7-6.2-7v13.8ZM260.8,119c0,0.6-.1.9-0.1,1.3v6.3c0,2.1.2,2.7,2.7,3.1H264l2.9-3.8Z" transform="translate(0 103)" fill="none" stroke="#000" stroke-miterlimit="10" stroke-width="2"/>
    <path d="M230.4,93.4a2,2,0,0,1-.2-1.2v-34a1.3,1.3,0,0,1,1.3-1.3h0.1a1.2,1.2,0,0,1,1.3,1.4c0,2.3.1,4.6,0,6.8a2.6,2.6,0,0,0,.9,2.1l5.4,5.4c0-.6.1-0.9,0.1-1.3q0-5.7,0-11.4a2.2,2.2,0,0,1,.1-1.1,2.4,2.4,0,0,1,1.2-1.1,2.5,2.5,0,0,1,1.3,1.1,1.8,1.8,0,0,1,.1.9q0,16.1,0,32.3a2.2,2.2,0,0,1-.2,1.3,1.9,1.9,0,0,1-1.3.8,2,2,0,0,1-1.1-1,2.5,2.5,0,0,1-.1-1.2V78a2.9,2.9,0,0,0-1.1-2.7,43.5,43.5,0,0,1-4.1-4l-0.7-1-0.4.3V92.1a2.5,2.5,0,0,1-.1,1.2" transform="translate(0 103)" fill="none" stroke="#000" stroke-miterlimit="10" stroke-width="2"/>
    <path d="M395.7,149.4l0.7-1.1,5.7-9.3a1.3,1.3,0,0,0,0-1.7c-1.7-2.6-3.3-5.3-5.1-7.8a2.4,2.4,0,0,1-.1-2.9l6.3-11q1.5-2.6,3,0l6.1,10a1.8,1.8,0,0,1,0,2.1l-5.9,9.6a1.5,1.5,0,0,0,.1,1.9l6.2,9.7h0.1c0.7,1,.6,1.9-0.2,2.3a1.6,1.6,0,0,1-2.1-.8l-5.3-8.3-0.9-1.4-4.6,7.6a13.9,13.9,0,0,1-1.6,2.4m6.7-32.5-5.2,9.2a1,1,0,0,0,0,.9l4.7,7.3,5.2-8.6a1,1,0,0,0,0-.9Z" transform="translate(0 103)" fill="none" stroke="#000" stroke-miterlimit="10" stroke-width="2"/>
    <path d="M395.2,36.5l3.5-9.4c0.9-2.4,1.8-4.7,2.6-7.1a3.1,3.1,0,0,0,0-1.9L395.9,3.3a2.3,2.3,0,0,1,.1-1.8c0.6-.9,1.8-0.5,2.3.7l2.5,6.7,2.4,6.3,1.6-4.3,3-8c0.6-1.7,1.2-2.2,2.1-1.8s1,1.2.4,2.7c-1.8,4.7-3.6,9.5-5.3,14.2a3,3,0,0,0,0,1.9l6,16.2c0.4,1.2.2,1.9-.7,2.2s-1.5-.4-1.8-1.3l-4.8-12.9-0.5-1.3-5.1,13.6-0.4.9" transform="translate(0 103)" fill="none" stroke="#000" stroke-miterlimit="10" stroke-width="2"/>
    <path d="M256.3,37.1a1.8,1.8,0,0,1-.1-0.9V4.1a2.1,2.1,0,0,1,.8-1.6,2.1,2.1,0,0,1,1.8.5l8.8,8.2a2.9,2.9,0,0,1,.8,1.9c0.1,7.8,0,15.7,0,23.5,0,0.9-.2,1.7-1.3,1.8s-1.4-.6-1.4-1.8V14.5a2.7,2.7,0,0,0-1-2.3l-5.9-5.4V36.3a2.3,2.3,0,0,1-.2,1.3" transform="translate(0 103)" fill="none" stroke="#000" stroke-miterlimit="10" stroke-width="2"/>
    <path d="M345.4,37.4a2.2,2.2,0,0,1-.1-1.1V3.9a2.9,2.9,0,0,1,0-1.1,2.2,2.2,0,0,1,.8-1.2,1.9,1.9,0,0,1,1.3.2,2.7,2.7,0,0,1,.7.8l7.9,9.3c1.1,1.2,1,1.6-.1,2.8l-6.9,7,6.9,7.1,0.9,0.8c0.7,0.6,1.1,1.4.3,2.2s-1.5.5-2.2-.2l-6.2-6.1-0.7-.7a6,6,0,0,0-.1.8V36a2.3,2.3,0,0,1-.2,1.3M348,18.4l5.5-5.6L348,6.3V18.4Z" transform="translate(0 103)" fill="none" stroke="#000" stroke-miterlimit="10" stroke-width="2"/>
    <path d="M336.9,81.2l6.5,7.3,0.6,0.6V59.6a1.4,1.4,0,0,1,2.5-1l9.2,10.1a1.3,1.3,0,0,1,.3,1.8l-0.2.2a1.3,1.3,0,0,1-1.8,0l-0.2-.2-6.1-6.7-0.8-.9-0.2.7c0,4.6-.1,9.3-0.1,13.9s0.1,9.9,0,14.8a2.5,2.5,0,0,1-.8,1.8c-0.7.5-1.4-.1-1.9-0.7l-9-10.4" transform="translate(0 103)" fill="none" stroke="#000" stroke-miterlimit="10" stroke-width="2"/>
    <path d="M233.4,150V120h-0.3l-6,6.5-0.7.8a1.3,1.3,0,0,1-1.8.2h-0.1a1.3,1.3,0,0,1-.2-1.8h0.1l1.9-2.1,7-7.6c1.1-1.2,1.7-1.2,2.8,0l8.4,9a1.4,1.4,0,0,1,.2,2.2c-0.7.7-1.5,0.3-2.1-.4l-6.5-6.9v1.7q0,13.8,0,27.6a2.2,2.2,0,0,1,0,1.1" transform="translate(0 103)" fill="none" stroke="#000" stroke-miterlimit="10" stroke-width="2"/>
    <path d="M287.6,36.8V2.7A1.7,1.7,0,0,1,289,1.1a1.3,1.3,0,0,1,1.3,1.3V2.6c0,1.1-.1,2.2,0,3.4a2.7,2.7,0,0,0,.7,1.5l7.7,7.9c1.1,1.2,1.1,1.7-.1,2.8l-7.6,7a2.2,2.2,0,0,0-.8,1.9v9.8m0.1-14.7,5.8-5.4-5.8-5.6V22.3h0Z" transform="translate(0 103)" fill="none" stroke="#000" stroke-miterlimit="10" stroke-width="2"/>
    <path d="M401.3,93V69.4a2.9,2.9,0,0,0-.8-1.8L393,60.4l-0.6-.6A1.3,1.3,0,0,1,392,58l0.2-.2a1.3,1.3,0,0,1,1.8-.1l0.2,0.2,5.1,4.9,2,1.8V58.8c0-1.8.3-1.7,1.4-1.7s1.3,0.8,1.3,1.6v5l0.9-.7,5.5-5c0.7-.7,1.5-1,2.2-0.2s0.3,1.5-.4,2.2l-7.3,6.7a2.3,2.3,0,0,0-.9,1.9c0.1,5.3.1,10.5,0.1,15.8V93" transform="translate(0 103)" fill="none" stroke="#000" stroke-miterlimit="10" stroke-width="2"/>
    <path d="M231.5,36.6a2.3,2.3,0,0,1-.1-1.2V3.3a1.3,1.3,0,0,1,1.2-1.4h0.2a1.2,1.2,0,0,1,1.3,1.4V7.4a2.3,2.3,0,0,0,.1,1.2l5.6-5.7c0.6-.7,1.4-1,2.1-0.3a1.3,1.3,0,0,1,.2,1.8l-0.3.3L235,11.6a3.5,3.5,0,0,0-.8,2c-0.1,1.4,0,2.9,0,4.4h0.2l5.2-5.3,1.2-1.2a1.3,1.3,0,1,1,1.9,1.9l-8.2,8.1a1.6,1.6,0,0,0-.4,1v13a2.4,2.4,0,0,1-.1,1.2" transform="translate(0 103)" fill="none" stroke="#000" stroke-miterlimit="10" stroke-width="2"/>
    <path d="M424.1,91.3l10.1-12.2,1.3-1.6H424.3a2.7,2.7,0,0,1-1.7-.7,2.3,2.3,0,0,1,.5-1.9l5.1-6,9.2-10.6,0.3-.4a1.3,1.3,0,0,1,1.8-.5l0.2,0.2a1.4,1.4,0,0,1,0,2h0l-2.5,2.9L426.7,74.7h2.7l8.6-.2a2.1,2.1,0,0,1,1.6.8,2,2,0,0,1-.4,1.7L426,93" transform="translate(0 103)" fill="none" stroke="#000" stroke-miterlimit="10" stroke-width="2"/>
    <path d="M318.2,37.4a1.9,1.9,0,0,1-.1-1V4a3.1,3.1,0,0,1,.1-1.2,2,2,0,0,1,.9-1.1,1.6,1.6,0,0,1,1.4.4l8.6,9.7a1.3,1.3,0,0,1,.1,1.8h-0.1a1.3,1.3,0,0,1-1.8,0l-0.2-.2-6.2-7.1a34.4,34.4,0,0,1,0,3.8,4.8,4.8,0,0,0,1.8,4.5c2.1,1.9,4.1,4,6.1,6s1,1.7.4,2.3-1.6.3-2.3-.4l-4.8-4.8-1.1-1V36.7a1.5,1.5,0,0,1-.1.8" transform="translate(0 103)" fill="none" stroke="#000" stroke-miterlimit="10" stroke-width="2"/>
    <path d="M427.4,37.1V19.8h0V3c0-.8,0-1.6.9-1.9s1.4,0.3,1.9.9l8,9.5c1,1.2,1,1.7-.2,2.8L430.8,21a2.7,2.7,0,0,0-.7,1.7c-0.1,4.4,0,8.9,0,13.3a1.9,1.9,0,0,1,0,.9M430.2,6V17.9l5.6-5.2Z" transform="translate(0 103)" fill="none" stroke="#000" stroke-miterlimit="10" stroke-width="2"/>
    <path d="M347,150.3a1.8,1.8,0,0,1-.1-1V116.2a3,3,0,0,1,.3-1.4c0.5-.9,1.5-0.9,2.4.1l6.7,7.9,2.3,2.7c0.8,1,.9,1.8.1,2.3a1.7,1.7,0,0,1-2.2-.6l-6.6-7.8h-0.3v29.5a2.5,2.5,0,0,1-.1,1.2" transform="translate(0 103)" fill="none" stroke="#000" stroke-miterlimit="10" stroke-width="2"/>
    <path d="M260.5,93.2a2.5,2.5,0,0,1-.1-1.2V70.9a2.7,2.7,0,0,0-.9-2.1l-3.9-4.1c-0.6-.7-1-1.4-0.3-2.2s1.4-.5,2.2.4l2.8,2.9V58.7a2.3,2.3,0,0,1,.6-1.5c0.8-.7,2,0.1,2,1.3v9.1a3.3,3.3,0,0,0,.8,1.9c1.2,1.4,2.5,2.8,3.8,4.1s0.9,1.4.2,2.1-1.5.4-2.2-.3l-2.6-2.8V92.3a1.9,1.9,0,0,1-.1,1" transform="translate(0 103)" fill="none" stroke="#000" stroke-miterlimit="10" stroke-width="2"/>
    <path d="M381.5,37.8l-3.7-5-8.6-11.7a1.9,1.9,0,0,1,0-2.7h0l12-15.8,1.4-1.3a3.3,3.3,0,0,1,1.2,1,2.3,2.3,0,0,1-.3,1.6c-1.4,2-2.9,3.9-4.4,5.9l-7,9.2a1.1,1.1,0,0,0-.2,1.5l0.2,0.2,11,15,0.5,0.7" transform="translate(0 103)" fill="none" stroke="#000" stroke-miterlimit="10" stroke-width="2"/>
    <path d="M286.4,92.5V58.8c0-1.3.5-1.9,1.4-1.8a1.6,1.6,0,0,1,1.3,1.8V69.5H289V80.3c0,3.6.1,8.1,0.1,12.2" transform="translate(0 103)" fill="none" stroke="#000" stroke-miterlimit="10" stroke-width="2"/>
    <path d="M316.1,82l-7-8.1-1.6-1.8a1.6,1.6,0,0,1-.1-2.3h0l8.8-11.2c0.6-.7,1.3-1.1,2.1-0.4a1.3,1.3,0,0,1,0,2.1l-6.9,8.9L310,70.9l7.1,8,1.1,1.3" transform="translate(0 103)" fill="none" stroke="#000" stroke-miterlimit="10" stroke-width="2"/>
    <path d="M316.4,91.8c1.9-2.6,3.8-5.3,5.9-7.8s2-2.3,0-4.5L315.8,72a1.4,1.4,0,0,1,0-2.2,1.6,1.6,0,0,1,2.1.4l6.2,7,2.7,2.9a1.6,1.6,0,0,1,.1,2.3h0l-8.1,10.5-1.2.9" transform="translate(0 103)" fill="none" stroke="#000" stroke-miterlimit="10" stroke-width="2"/>
  </g>
  <g>
    <path d="M198.7-9.3a1.7,1.7,0,0,1,0-.8q0-16.3,0-32.6v-0.4a1.3,1.3,0,0,1,1-1.6h0.1a2.1,2.1,0,0,1,1.5,1c1.3,2.5,2.5,5.2,3.8,7.7l3.2,6.6,2.9-5.8,3.6-7.4a1.5,1.5,0,0,1,1.7-1.2c0.9,0.2,1.1,1,1.1,1.9q0,15.8,0,31.5c0,0.9-.1,1.6-1.1,1.8s-1.4-.5-1.7-1.3l-5.9-12.3-0.6-1.1L201.8-10a3,3,0,0,1-.5,1.1m0.4-28.3h-0.2v21.3c1.5-2.7,2.8-5.5,4.3-8.2s1.1-3.1,0-4.7a10,10,0,0,1-.8-1.6Zm13,20.9h0.2V-36.1c-1.7,3.1-3.2,6.2-4.7,9.3a1.5,1.5,0,0,0-.1,1.1Z" transform="translate(0 103)" fill="none" stroke="#000" stroke-miterlimit="10" stroke-width="2"/>
    <path d="M90.7-8.7a2.1,2.1,0,0,1-.1-1.1V-42.6a2.1,2.1,0,0,1,0-.8,2.4,2.4,0,0,1,.9-1.2,1.7,1.7,0,0,1,1.4.4c1.4,1.5,2.6,3,3.9,4.5l3.1,3.6,6.2-6.8,1-1a1.2,1.2,0,0,1,1.7.1,1.2,1.2,0,0,1,.3.6,4.9,4.9,0,0,1,.1,1.2q0.1,16.2.1,32.4a2.4,2.4,0,0,1-.6,1.6,1.2,1.2,0,0,1-1.7-.1,1.2,1.2,0,0,1-.3-0.9,19.2,19.2,0,0,1,0-2.4V-23.8a1.3,1.3,0,0,0-.7-1.4,8.5,8.5,0,0,1-1.8-1.9l-4.3-5-6.4,7a2,2,0,0,0-.3,1.2v14a2.2,2.2,0,0,1-.1,1.2m13.5-30.7-4.9,5.3,4.9,5.7v-11Zm-8.4,5.2-4.8-5.4v10.8Z" transform="translate(0 103)" fill="none" stroke="#000" stroke-miterlimit="10" stroke-width="2"/>
    <path d="M58.2-8.6a2.2,2.2,0,0,1-.1-1.2V-42.1c0-.8,0-1.7.9-2s1.4,0.3,1.9.9l6.6,7.9L74-43.8c0.5-.6,1-1.4,1.9-1s0.9,1.2.9,2v33a2.3,2.3,0,0,1-.2,1.3,1.7,1.7,0,0,1-1.2.7,2.1,2.1,0,0,1-1.2-1,2.4,2.4,0,0,1-.1-1.2V-39.3H73.9l-3.6,4.6L69-33c-1.3,1.6-1.9,1.6-3.2.1l-4.6-5.5-0.6-.7V-10a2.4,2.4,0,0,1-.1,1.2" transform="translate(0 103)" fill="none" stroke="#000" stroke-miterlimit="10" stroke-width="2"/>
    <path d="M158.5-65.7l-6.9-7.9-0.4-.6-6.9,8.6c-0.5.7-1,1.3-2,.9s-0.9-1.2-.9-2V-98.1a11.3,11.3,0,0,1,0-2.3,2,2,0,0,1,.9-1.3,1.8,1.8,0,0,1,1.5.5l6,7.5,1,1.2,6.4-7,1.4-1.5a1.3,1.3,0,0,1,1.8-.4l0.2,0.2a1.3,1.3,0,0,1,.1,1.8h-0.1l-8.9,9.7c-0.8.8-1.5,0.7-2.3-.3L145-95.5l-0.9-1.1v26.3h0.3l4.3-5.3,0.5-.7c1.5-1.9,2-1.9,3.6-.1l7.7,8.9" transform="translate(0 103)" fill="none" stroke="#000" stroke-miterlimit="10" stroke-width="2"/>
    <path d="M147.8-10.6l5.1-6.7,0.4-.6L147.9-25a1.7,1.7,0,0,1-.1-2.4h0.1l4.8-6.4a1,1,0,0,0,.1-1.4h-0.1l-4.8-6.1c-0.7-.9-0.8-1.8,0-2.3a1.5,1.5,0,0,1,2.1.6l4.9,6.3,4.6-6.2,0.7-1a1.3,1.3,0,0,1,1.7-.6h0.2a1.3,1.3,0,0,1,.5,1.8l-0.3.3-3.7,5c-0.7.9-1.8,1.8-1.8,2.7s1.1,1.8,1.8,2.7l3.5,4.5a1.7,1.7,0,0,1,.1,2.4h-0.1l-5.5,7.2,5.1,6.6,0.5,0.7c0.6,0.8.8,1.6-.1,2.2a1.3,1.3,0,0,1-2-.5l-5.2-6.7L152-11.9l-2.3,3m9.9-17.3-4.8-6.2-4.3,5.8a0.8,0.8,0,0,0,0,.7L155-20Z" transform="translate(0 103)" fill="none" stroke="#000" stroke-miterlimit="10" stroke-width="2"/>
    <path d="M35.1-9.4Q35-26.2,35.1-43a1.4,1.4,0,0,1,1-1.7,1.4,1.4,0,0,1,1.6.7q4.5,4.8,8.8,9.8a2,2,0,0,1,.3,1.8c-1.5,2.2-3.2,4.3-4.6,6L47-21c0.9,1,1,1.5,0,2.5l-9.3,10m6.4-10.7-6.2-7v13.8ZM37.8-39.9c0,0.6-.1.9-0.1,1.3v6.3c0,2.1.2,2.7,2.7,3.1H41l2.9-3.8Z" transform="translate(0 103)" fill="none" stroke="#000" stroke-miterlimit="10" stroke-width="2"/>
    <path d="M7.4-65.5a2,2,0,0,1-.2-1.2v-34A1.3,1.3,0,0,1,8.5-102H8.6a1.2,1.2,0,0,1,1.3,1.1,1.2,1.2,0,0,1,0,.3c0,2.3.1,4.6,0,6.8a2.6,2.6,0,0,0,.9,2.1l5.4,5.4c0-.6.1-0.9,0.1-1.3q0-5.7,0-11.4a2.2,2.2,0,0,1,.1-1.1,2.4,2.4,0,0,1,1.2-1.1,2.5,2.5,0,0,1,1.3,1.1,1.8,1.8,0,0,1,.1.9q0,16.1,0,32.3a2.2,2.2,0,0,1-.2,1.3,1.9,1.9,0,0,1-1.3.8,2,2,0,0,1-1.1-1,2.5,2.5,0,0,1-.1-1.2V-80.9a2.9,2.9,0,0,0-1.1-2.7,43.5,43.5,0,0,1-4.1-4l-0.7-1-0.4.3v21.5a2.5,2.5,0,0,1-.1,1.2" transform="translate(0 103)" fill="none" stroke="#000" stroke-miterlimit="10" stroke-width="2"/>
    <path d="M172.7-9.5l0.7-1.1,5.7-9.3a1.3,1.3,0,0,0,0-1.7c-1.7-2.6-3.3-5.3-5.1-7.8a2.4,2.4,0,0,1-.1-2.9l6.3-11q1.5-2.6,3,0l6.1,10a1.8,1.8,0,0,1,0,2.1l-5.9,9.6a1.5,1.5,0,0,0,.1,1.9l6.2,9.7h0.1c0.7,1,.6,1.9-0.2,2.3a1.6,1.6,0,0,1-2.1-.8l-5.3-8.3-0.9-1.4-4.6,7.6a13.9,13.9,0,0,1-1.6,2.4m6.7-32.5-5.2,9.2a1,1,0,0,0,0,.9l4.7,7.3,5.2-8.6a1,1,0,0,0,0-.9Z" transform="translate(0 103)" fill="none" stroke="#000" stroke-miterlimit="10" stroke-width="2"/>
    <path d="M113.9-77.7l6.5,7.3,0.6,0.6V-99.3a1.4,1.4,0,0,1,1.2-1.5,1.4,1.4,0,0,1,1.3.5l9.2,10.1a1.3,1.3,0,0,1,.3,1.8l-0.2.2a1.3,1.3,0,0,1-1.8,0l-0.2-.2-6.1-6.7-0.8-.9-0.2.7c0,4.6-.1,9.3-0.1,13.9s0.1,9.9,0,14.8a2.5,2.5,0,0,1-.8,1.8c-0.7.5-1.4-.1-1.9-0.7l-9-10.4" transform="translate(0 103)" fill="none" stroke="#000" stroke-miterlimit="10" stroke-width="2"/>
    <path d="M10.4-8.9v-30H10.1l-6,6.5-0.7.8a1.3,1.3,0,0,1-1.8.2H1.5a1.3,1.3,0,0,1-.2-1.8H1.4l1.9-2.1,7-7.6c1.1-1.2,1.7-1.2,2.8,0l8.4,9a1.4,1.4,0,0,1,.2,2.2c-0.7.7-1.5,0.3-2.1-.4l-6.5-6.9v1.7q0,13.8,0,27.6a2.2,2.2,0,0,1,0,1.1" transform="translate(0 103)" fill="none" stroke="#000" stroke-miterlimit="10" stroke-width="2"/>
    <path d="M178.3-65.9V-89.5a2.9,2.9,0,0,0-.8-1.8L170-98.5l-0.6-.6a1.3,1.3,0,0,1-.4-1.8l0.2-.2a1.3,1.3,0,0,1,1.8-.1l0.2,0.2,5.1,4.9,2,1.8v-5.8c0-1.8.3-1.7,1.4-1.7s1.3,0.8,1.3,1.6v5l0.9-.7,5.5-5c0.7-.7,1.5-1,2.2-0.2s0.3,1.5-.4,2.2l-7.3,6.7a2.3,2.3,0,0,0-.9,1.9c0.1,5.3.1,10.5,0.1,15.8v8.6" transform="translate(0 103)" fill="none" stroke="#000" stroke-miterlimit="10" stroke-width="2"/>
    <path d="M201.1-67.6l10.1-12.2,1.3-1.6H201.3a2.7,2.7,0,0,1-1.7-.7,2.3,2.3,0,0,1,.5-1.9l5.1-6,9.2-10.6,0.3-.4a1.3,1.3,0,0,1,1.8-.5l0.2,0.2a1.4,1.4,0,0,1,0,2h0l-2.5,2.9L203.7-84.2h2.7l8.6-.2a2.1,2.1,0,0,1,1.6.8,2,2,0,0,1-.4,1.7L203-65.9" transform="translate(0 103)" fill="none" stroke="#000" stroke-miterlimit="10" stroke-width="2"/>
    <path d="M124-8.6a1.8,1.8,0,0,1-.1-1V-42.7a3,3,0,0,1,.3-1.4c0.5-.9,1.5-0.9,2.4.1l6.7,7.9,2.3,2.7c0.8,1,.9,1.8.1,2.3a1.7,1.7,0,0,1-2.2-.6l-6.6-7.8h-0.3V-10a2.5,2.5,0,0,1-.1,1.2" transform="translate(0 103)" fill="none" stroke="#000" stroke-miterlimit="10" stroke-width="2"/>
    <path d="M37.5-65.7a2.5,2.5,0,0,1-.1-1.2V-88a2.7,2.7,0,0,0-.9-2.1l-3.9-4.1c-0.6-.7-1-1.4-0.3-2.2s1.4-.5,2.2.4l2.8,2.9v-7.1a2.3,2.3,0,0,1,.6-1.5c0.8-.7,2,0.1,2,1.3v9.1a3.3,3.3,0,0,0,.8,1.9c1.2,1.4,2.5,2.8,3.8,4.1s0.9,1.4.2,2.1-1.5.4-2.2-.3l-2.6-2.8v19.7a1.9,1.9,0,0,1-.1,1" transform="translate(0 103)" fill="none" stroke="#000" stroke-miterlimit="10" stroke-width="2"/>
    <path d="M63.4-66.4v-33.7c0-1.3.5-1.9,1.4-1.8a1.6,1.6,0,0,1,1.3,1.8v10.7H66v10.8c0,3.6.1,8.1,0.1,12.2" transform="translate(0 103)" fill="none" stroke="#000" stroke-miterlimit="10" stroke-width="2"/>
    <path d="M93.1-76.9l-7-8.1-1.6-1.8a1.6,1.6,0,0,1-.1-2.3h0l8.8-11.2c0.6-.7,1.3-1.1,2.1-0.4a1.3,1.3,0,0,1,0,2.1l-6.9,8.9L87-88l7.1,8,1.1,1.3" transform="translate(0 103)" fill="none" stroke="#000" stroke-miterlimit="10" stroke-width="2"/>
    <path d="M93.4-67.1c1.9-2.6,3.8-5.3,5.9-7.8s2-2.3,0-4.5l-6.5-7.5a1.4,1.4,0,0,1,0-2.2,1.6,1.6,0,0,1,2.1.4l6.2,7,2.7,2.9a1.6,1.6,0,0,1,.1,2.3h0L95.8-66l-1.2.9" transform="translate(0 103)" fill="none" stroke="#000" stroke-miterlimit="10" stroke-width="2"/>
  </g>
  <g>
    <path d="M421.7-9.3a1.7,1.7,0,0,1,0-.8q0-16.3,0-32.6v-0.4a1.3,1.3,0,0,1,1-1.6h0.1a2.1,2.1,0,0,1,1.5,1c1.3,2.5,2.5,5.2,3.8,7.7l3.2,6.6,2.9-5.8,3.6-7.4a1.5,1.5,0,0,1,1.7-1.2c0.9,0.2,1.1,1,1.1,1.9q0,15.8,0,31.5c0,0.9-.1,1.6-1.1,1.8s-1.4-.5-1.7-1.3l-5.9-12.3-0.6-1.1L424.8-10a3,3,0,0,1-.5,1.1m0.4-28.3h-0.2v21.3c1.5-2.7,2.8-5.5,4.3-8.2s1.1-3.1,0-4.7a10,10,0,0,1-.8-1.6Zm13,20.9h0.2V-36.1c-1.7,3.1-3.2,6.2-4.7,9.3a1.5,1.5,0,0,0-.1,1.1Z" transform="translate(0 103)" fill="none" stroke="#000" stroke-miterlimit="10" stroke-width="2"/>
    <path d="M313.7-8.7a2.1,2.1,0,0,1-.1-1.1V-42.6a2.1,2.1,0,0,1,0-.8,2.4,2.4,0,0,1,.9-1.2,1.7,1.7,0,0,1,1.4.4c1.4,1.5,2.6,3,3.9,4.5l3.1,3.6,6.2-6.8,1-1a1.2,1.2,0,0,1,1.7.1,1.2,1.2,0,0,1,.3.6,4.9,4.9,0,0,1,.1,1.2q0.1,16.2.1,32.4a2.4,2.4,0,0,1-.6,1.6,1.2,1.2,0,0,1-1.7-.1,1.2,1.2,0,0,1-.3-0.9,19.2,19.2,0,0,1,0-2.4V-23.8a1.3,1.3,0,0,0-.7-1.4,8.5,8.5,0,0,1-1.8-1.9l-4.3-5-6.4,7a2,2,0,0,0-.3,1.2v14a2.2,2.2,0,0,1-.1,1.2m13.5-30.7-4.9,5.3,4.9,5.7v-11Zm-8.4,5.2-4.8-5.4v10.8Z" transform="translate(0 103)" fill="none" stroke="#000" stroke-miterlimit="10" stroke-width="2"/>
    <path d="M281.2-8.6a2.2,2.2,0,0,1-.1-1.2V-42.1c0-.8,0-1.7.9-2s1.4,0.3,1.9.9l6.6,7.9,6.5-8.5c0.5-.6,1-1.4,1.9-1s0.9,1.2.9,2v33a2.3,2.3,0,0,1-.2,1.3,1.7,1.7,0,0,1-1.2.7,2.1,2.1,0,0,1-1.2-1,2.4,2.4,0,0,1-.1-1.2V-39.3h-0.2l-3.6,4.6L292-33c-1.3,1.6-1.9,1.6-3.2.1l-4.6-5.5-0.6-.7V-10a2.4,2.4,0,0,1-.1,1.2" transform="translate(0 103)" fill="none" stroke="#000" stroke-miterlimit="10" stroke-width="2"/>
    <path d="M381.5-65.7l-6.9-7.9-0.4-.6-6.9,8.6c-0.5.7-1,1.3-2,.9s-0.9-1.2-.9-2V-98.1a11.3,11.3,0,0,1,0-2.3,2,2,0,0,1,.9-1.3,1.8,1.8,0,0,1,1.5.5l6,7.5,1,1.2,6.4-7,1.4-1.5a1.3,1.3,0,0,1,1.8-.4l0.2,0.2a1.3,1.3,0,0,1,.1,1.8h-0.1l-8.9,9.7c-0.8.8-1.5,0.7-2.3-.3L368-95.5l-0.9-1.1v26.3h0.3l4.3-5.3,0.5-.7c1.5-1.9,2-1.9,3.6-.1l7.7,8.9" transform="translate(0 103)" fill="none" stroke="#000" stroke-miterlimit="10" stroke-width="2"/>
    <path d="M370.8-10.6l5.1-6.7,0.4-.6L370.9-25a1.7,1.7,0,0,1-.1-2.4h0.1l4.8-6.4a1,1,0,0,0,.1-1.4h-0.1l-4.8-6.1c-0.7-.9-0.8-1.8,0-2.3a1.5,1.5,0,0,1,2.1.6l4.9,6.3,4.6-6.2,0.7-1a1.3,1.3,0,0,1,1.7-.6h0.2a1.3,1.3,0,0,1,.5,1.8l-0.3.3-3.7,5c-0.7.9-1.8,1.8-1.8,2.7s1.1,1.8,1.8,2.7l3.5,4.5a1.7,1.7,0,0,1,.1,2.4h-0.1l-5.5,7.2,5.1,6.6,0.5,0.7c0.6,0.8.8,1.6-.1,2.2a1.3,1.3,0,0,1-2-.5l-5.2-6.7L375-11.9l-2.3,3m9.9-17.3-4.8-6.2-4.3,5.8a0.8,0.8,0,0,0,0,.7L378-20Z" transform="translate(0 103)" fill="none" stroke="#000" stroke-miterlimit="10" stroke-width="2"/>
    <path d="M258.1-9.4q-0.1-16.8,0-33.6a1.4,1.4,0,0,1,1-1.7,1.4,1.4,0,0,1,1.6.7q4.5,4.8,8.8,9.8a2,2,0,0,1,.3,1.8c-1.5,2.2-3.2,4.3-4.6,6L270-21c0.9,1,1,1.5,0,2.5l-9.3,10m6.4-10.7-6.2-7v13.8Zm-6.3-20.7c0,0.6-.1.9-0.1,1.3v6.3c0,2.1.2,2.7,2.7,3.1H264l2.9-3.8Z" transform="translate(0 103)" fill="none" stroke="#000" stroke-miterlimit="10" stroke-width="2"/>
    <path d="M230.4-65.5a2,2,0,0,1-.2-1.2v-34a1.3,1.3,0,0,1,1.3-1.3h0.1a1.2,1.2,0,0,1,1.3,1.1,1.2,1.2,0,0,1,0,.3c0,2.3.1,4.6,0,6.8a2.6,2.6,0,0,0,.9,2.1l5.4,5.4c0-.6.1-0.9,0.1-1.3q0-5.7,0-11.4a2.2,2.2,0,0,1,.1-1.1,2.4,2.4,0,0,1,1.2-1.1,2.5,2.5,0,0,1,1.3,1.1,1.8,1.8,0,0,1,.1.9q0,16.1,0,32.3a2.2,2.2,0,0,1-.2,1.3,1.9,1.9,0,0,1-1.3.8,2,2,0,0,1-1.1-1,2.5,2.5,0,0,1-.1-1.2V-80.9a2.9,2.9,0,0,0-1.1-2.7,43.5,43.5,0,0,1-4.1-4l-0.7-1-0.4.3v21.5a2.5,2.5,0,0,1-.1,1.2" transform="translate(0 103)" fill="none" stroke="#000" stroke-miterlimit="10" stroke-width="2"/>
    <path d="M395.7-9.5l0.7-1.1,5.7-9.3a1.3,1.3,0,0,0,0-1.7c-1.7-2.6-3.3-5.3-5.1-7.8a2.4,2.4,0,0,1-.1-2.9l6.3-11q1.5-2.6,3,0l6.1,10a1.8,1.8,0,0,1,0,2.1l-5.9,9.6a1.5,1.5,0,0,0,.1,1.9l6.2,9.7h0.1c0.7,1,.6,1.9-0.2,2.3a1.6,1.6,0,0,1-2.1-.8l-5.3-8.3-0.9-1.4-4.6,7.6a13.9,13.9,0,0,1-1.6,2.4m6.7-32.5-5.2,9.2a1,1,0,0,0,0,.9l4.7,7.3,5.2-8.6a1,1,0,0,0,0-.9Z" transform="translate(0 103)" fill="none" stroke="#000" stroke-miterlimit="10" stroke-width="2"/>
    <path d="M336.9-77.7l6.5,7.3,0.6,0.6V-99.3a1.4,1.4,0,0,1,1.2-1.5,1.4,1.4,0,0,1,1.3.5l9.2,10.1a1.3,1.3,0,0,1,.3,1.8l-0.2.2a1.3,1.3,0,0,1-1.8,0l-0.2-.2-6.1-6.7-0.8-.9-0.2.7c0,4.6-.1,9.3-0.1,13.9s0.1,9.9,0,14.8a2.5,2.5,0,0,1-.8,1.8c-0.7.5-1.4-.1-1.9-0.7l-9-10.4" transform="translate(0 103)" fill="none" stroke="#000" stroke-miterlimit="10" stroke-width="2"/>
    <path d="M233.4-8.9v-30h-0.3l-6,6.5-0.7.8a1.3,1.3,0,0,1-1.8.2h-0.1a1.3,1.3,0,0,1-.2-1.8h0.1l1.9-2.1,7-7.6c1.1-1.2,1.7-1.2,2.8,0l8.4,9a1.4,1.4,0,0,1,.2,2.2c-0.7.7-1.5,0.3-2.1-.4l-6.5-6.9v1.7q0,13.8,0,27.6a2.2,2.2,0,0,1,0,1.1" transform="translate(0 103)" fill="none" stroke="#000" stroke-miterlimit="10" stroke-width="2"/>
    <path d="M401.3-65.9V-89.5a2.9,2.9,0,0,0-.8-1.8L393-98.5l-0.6-.6a1.3,1.3,0,0,1-.4-1.8l0.2-.2a1.3,1.3,0,0,1,1.8-.1l0.2,0.2,5.1,4.9,2,1.8v-5.8c0-1.8.3-1.7,1.4-1.7s1.3,0.8,1.3,1.6v5l0.9-.7,5.5-5c0.7-.7,1.5-1,2.2-0.2s0.3,1.5-.4,2.2l-7.3,6.7a2.3,2.3,0,0,0-.9,1.9c0.1,5.3.1,10.5,0.1,15.8v8.6" transform="translate(0 103)" fill="none" stroke="#000" stroke-miterlimit="10" stroke-width="2"/>
    <path d="M424.1-67.6l10.1-12.2,1.3-1.6H424.3a2.7,2.7,0,0,1-1.7-.7,2.3,2.3,0,0,1,.5-1.9l5.1-6,9.2-10.6,0.3-.4a1.3,1.3,0,0,1,1.8-.5l0.2,0.2a1.4,1.4,0,0,1,0,2h0l-2.5,2.9L426.7-84.2h2.7l8.6-.2a2.1,2.1,0,0,1,1.6.8,2,2,0,0,1-.4,1.7L426-65.9" transform="translate(0 103)" fill="none" stroke="#000" stroke-miterlimit="10" stroke-width="2"/>
    <path d="M347-8.6a1.8,1.8,0,0,1-.1-1V-42.7a3,3,0,0,1,.3-1.4c0.5-.9,1.5-0.9,2.4.1l6.7,7.9,2.3,2.7c0.8,1,.9,1.8.1,2.3a1.7,1.7,0,0,1-2.2-.6l-6.6-7.8h-0.3V-10a2.5,2.5,0,0,1-.1,1.2" transform="translate(0 103)" fill="none" stroke="#000" stroke-miterlimit="10" stroke-width="2"/>
    <path d="M260.5-65.7a2.5,2.5,0,0,1-.1-1.2V-88a2.7,2.7,0,0,0-.9-2.1l-3.9-4.1c-0.6-.7-1-1.4-0.3-2.2s1.4-.5,2.2.4l2.8,2.9v-7.1a2.3,2.3,0,0,1,.6-1.5c0.8-.7,2,0.1,2,1.3v9.1a3.3,3.3,0,0,0,.8,1.9c1.2,1.4,2.5,2.8,3.8,4.1s0.9,1.4.2,2.1-1.5.4-2.2-.3l-2.6-2.8v19.7a1.9,1.9,0,0,1-.1,1" transform="translate(0 103)" fill="none" stroke="#000" stroke-miterlimit="10" stroke-width="2"/>
    <path d="M286.4-66.4v-33.7c0-1.3.5-1.9,1.4-1.8a1.6,1.6,0,0,1,1.3,1.8v10.7H289v10.8c0,3.6.1,8.1,0.1,12.2" transform="translate(0 103)" fill="none" stroke="#000" stroke-miterlimit="10" stroke-width="2"/>
    <path d="M316.1-76.9l-7-8.1-1.6-1.8a1.6,1.6,0,0,1-.1-2.3h0l8.8-11.2c0.6-.7,1.3-1.1,2.1-0.4a1.3,1.3,0,0,1,0,2.1l-6.9,8.9L310-88l7.1,8,1.1,1.3" transform="translate(0 103)" fill="none" stroke="#000" stroke-miterlimit="10" stroke-width="2"/>
    <path d="M316.4-67.1c1.9-2.6,3.8-5.3,5.9-7.8s2-2.3,0-4.5l-6.5-7.5a1.4,1.4,0,0,1,0-2.2,1.6,1.6,0,0,1,2.1.4l6.2,7,2.7,2.9a1.6,1.6,0,0,1,.1,2.3h0L318.8-66l-1.2.9" transform="translate(0 103)" fill="none" stroke="#000" stroke-miterlimit="10" stroke-width="2"/>
  </g>
</svg>
